<?xml version="1.0" standalone="no"?>
<!DOCTYPE svg PUBLIC "-//W3C//DTD SVG 20010904//EN"
 "http://www.w3.org/TR/2001/REC-SVG-20010904/DTD/svg10.dtd">
<svg version="1.0" xmlns="http://www.w3.org/2000/svg"
 width="128.000000pt" height="128.000000pt" viewBox="0 0 128.000000 128.000000"
 preserveAspectRatio="xMidYMid meet">
<metadata>
Created by potrace 1.16, written by Peter Selinger 2001-2019
</metadata>
<g transform="translate(0.000000,128.000000) scale(0.100000,-0.100000)"
fill="#000000" stroke="none">
<path d="M0 640 l0 -640 640 0 640 0 0 640 0 640 -640 0 -640 0 0 -640z m740
445 c19 -10 52 -36 73 -58 l37 -40 0 51 0 52 41 0 40 0 -4 -357 c-4 -405 -5
-410 -77 -485 -33 -34 -59 -50 -99 -62 -150 -44 -321 6 -371 108 -30 63 -27
76 18 76 33 0 39 -5 54 -38 26 -56 75 -84 156 -89 37 -3 86 0 109 6 83 22 133
119 133 254 l0 70 -29 -40 c-19 -26 -50 -51 -86 -68 -50 -25 -63 -27 -129 -22
-153 11 -236 92 -266 257 -26 145 28 300 127 361 82 51 201 61 273 24z"/>
<path d="M550 1024 c-88 -38 -123 -102 -128 -239 -3 -94 -2 -103 25 -154 50
-98 130 -137 238 -117 50 10 119 75 142 134 21 56 24 176 5 240 -16 51 -74
120 -119 139 -42 17 -119 16 -163 -3z"/>
</g>
</svg>
